<svg viewBox="0 0 32 32" width="32" height="32" fill="none" xmlns="http://www.w3.org/2000/svg">
  <rect width="32" height="32" rx="8" fill="#086788"/>
  <!-- Flask (thick walls) -->
  <path d="M13 5v9L8 22a2 2 0 001.8 2.8h12.4A2 2 0 0024 22L19 14V5" stroke="#FED766" strokeWidth="2.2" strokeLinecap="round" strokeLinejoin="round"/>
  <path d="M11 5h10" stroke="#FED766" strokeWidth="2.2" strokeLinecap="round"/>
  <!-- Bubbles -->
  <circle cx="12.5" cy="20.5" r="1.3" fill="#07A0C3" opacity="0.9"/>
  <circle cx="16"   cy="22.5" r="1"   fill="#07A0C3" opacity="0.7"/>
  <circle cx="19"   cy="20"   r="1.1" fill="#07A0C3" opacity="0.85"/>
  <!-- Robot antenna -->
  <line x1="27" y1="12" x2="27" y2="9.5" stroke="#07A0C3" strokeWidth="1.2" strokeLinecap="round"/>
  <circle cx="27" cy="9" r="1.2" fill="#07A0C3"/>
  <!-- Robot head -->
  <rect x="22.5" y="12" width="9" height="7.5" rx="2" fill="#07A0C3"/>
  <!-- Eyes -->
  <circle cx="25" cy="15.5" r="1.2" fill="white" opacity="0.95"/>
  <circle cx="29" cy="15.5" r="1.2" fill="white" opacity="0.95"/>
  <!-- Pupils -->
  <circle cx="25.4" cy="15.8" r="0.5" fill="#086788"/>
  <circle cx="29.4" cy="15.8" r="0.5" fill="#086788"/>
  <!-- Smile -->
  <path d="M24.5 18.5 Q27 20 30 18.5" stroke="white" strokeWidth="0.8" strokeLinecap="round" fill="none" opacity="0.75"/>
  <!-- Medical cross on forehead -->
  <rect x="26.4" y="13" width="1.1" height="3" rx="0.4" fill="white" opacity="0.85"/>
  <rect x="25.2" y="14" width="3.4" height="1.1" rx="0.4" fill="white" opacity="0.85"/>
</svg>
